<?xml version="1.0" encoding="UTF-8"?>
<svg id="_图层_1" data-name="图层 1" xmlns="http://www.w3.org/2000/svg" xmlns:xlink="http://www.w3.org/1999/xlink" viewBox="0 0 1060 699.5">
  <defs>
    <style>
      .cls-1 {
        fill: #6179ef;
      }

      .cls-2 {
        fill: #f5634a;
      }

      .cls-3 {
        fill: #6252db;
      }

      .cls-4 {
        fill: #f1f6ff;
      }

      .cls-5 {
        fill: #fff;
      }

      .cls-6 {
        fill: #f3be3e;
      }

      .cls-7 {
        fill: rgba(11, 16, 102, .19);
      }

      .cls-8 {
        fill: #5b9bfd;
      }

      .cls-9 {
        fill: #53c8ce;
      }

      .cls-10 {
        fill: url(#_未命名的渐变);
      }

      .cls-11 {
        fill: #856cf2;
      }

      .cls-12 {
        fill: #d0e2ff;
      }

      .cls-13 {
        fill: #f9bc00;
      }
    </style>
    <linearGradient id="_未命名的渐变" data-name="未命名的渐变" x1="-240.95" y1="856.73" x2="636.43" y2="856.73" gradientTransform="translate(394280.47 42226.78) scale(877.3 -48.6)" gradientUnits="userSpaceOnUse">
      <stop offset="0" stop-color="#405ab1"/>
      <stop offset="1" stop-color="#0b1066"/>
    </linearGradient>
  </defs>
  <path class="cls-3" d="M91.4,352.5v-116.8l3.7-1.3,3.3-1.8,3.1-2.2,2.7-2.7,2.3-2.9,1.9-3.3,1.4-3.6.8-3.8.4-4-.3-3.7-.7-3.4-1.1-3.3-1.6-3-1.9-2.8-2.2-2.6-2.6-2.2-2.8-1.9-3-1.6-3.3-1.1-3.4-.7-3.7-.3-3.6.3-3.5.7-3.2,1.1-3.1,1.6-2.8,1.9-2.5,2.2-2.3,2.6-1.9,2.8-1.5,3-1.2,3.3-.7,3.4-.2,3.7.3,4,.9,3.8,1.4,3.6,1.8,3.3,2.4,3,2.7,2.6,3,2.2,3.4,1.8,3.7,1.3v130.7h303.9v-13.9H91.4Z"/>
  <path class="cls-6" d="M969,187.7v-68.2l-3.7-1.3-3.3-1.8-3.1-2.2-2.7-2.6-2.3-3-1.9-3.3-1.4-3.6-.9-3.7-.3-4.1.3-3.6.7-3.5,1.1-3.2,1.5-3.1,1.9-2.8,2.3-2.6,2.5-2.2,2.8-1.9,3.1-1.6,3.3-1.1,3.4-.7,3.6-.2,3.7.2,3.4.7,3.3,1.1,3.1,1.6,2.8,1.9,2.5,2.2,2.3,2.6,1.8,2.8,1.6,3.1,1.1,3.2.7,3.5.3,3.6-.3,4.1-.9,3.7-1.4,3.6-1.9,3.3-2.3,3-2.7,2.6-3.1,2.2-3.3,1.8-3.7,1.3v82.1h-304v-13.9h290.1Z"/>
  <path class="cls-2" d="M33.5,295.3v-116.8l3.6-1.3,3.4-1.8,3.1-2.2,2.7-2.6,2.3-3,1.9-3.3,1.4-3.6.8-3.8.4-4-.3-3.7-.7-3.4-1.1-3.2-1.6-3.1-1.9-2.8-2.2-2.6-2.6-2.2-2.8-1.9-3.1-1.6-3.2-1.1-3.4-.7-3.7-.2-3.6.2-3.5.7-3.2,1.1-3.1,1.6-2.8,1.9-2.6,2.2-2.2,2.6-1.9,2.8-1.5,3.1-1.2,3.2-.7,3.4-.2,3.7.3,4,.8,3.8,1.4,3.6,1.9,3.3,2.3,3,2.8,2.6,3,2.2,3.4,1.8,3.7,1.3v130.7h303.9v-13.9H33.5Z"/>
  <g>
    <path class="cls-13" d="M595.9,53.9l-.4-4.9-.8-4.4-1.3-4-1.7-3.7-2.2-3.5-2.6-3-2.9-2.6-3.4-2.3-3.6-1.8-3.9-1.3-4.3-.8-4.6-.3-46.5-.2-46.4.2-4.2.3-3.9.8-3.7,1.3-3.5,1.8-3.2,2.1-3,2.6-2.6,2.9-2.1,3.2-1.8,3.5-1.4,3.7-.8,3.9-.3,4.1-.2,47.5.2,47.6.3,3.9.8,3.6,1.2,3.6,1.7,3.3,2,3.1,2.4,2.9,2.7,2.5,3,2.1,3.3,1.8,3.5,1.4,3.6.8,3.8.4,11.9.3,81.9.1,4.9-.3,4.5-.8,4.1-1.3,3.7-1.7,3.5-2.2,3.1-2.6,2.6-3,2.3-3.4,1.8-3.7,1.3-4.1.8-4.5.4-4.9V53.9ZM562.9,160.9h-89.5l-3.3-.2-2.9-.5-2.4-.9-2.1-1.2-1.7-1.4-1.5-1.8-1.2-2-.9-2.4-.6-2.8-.2-3.4-.1-89.6.3-3.8.5-3.1,1-2.7,1.2-2.2,1.5-1.8,1.8-1.5,2.2-1.2,2.6-1,3.2-.6,91.2-.2,3.9.3,3.4.6,2.7.9,2.3,1.3,1.9,1.5,1.6,1.9,1.2,2.3,1,2.8.6,3.3.2,3.9v87.5l-.2,3.6-.6,3.1-1,2.6-1.2,2.2-1.6,1.9-1.8,1.6-2.2,1.3-2.6.9-3.1.6-3.6.2Z"/>
    <path class="cls-13" d="M487.7,54.7h-3.5l-2.5.5-1.8.8-1.1,1-1.5,2.7-.2,1.9v2l1.1,3,.9,1.1,1.8,1.1,2.5.8,13.8,1.8,4.9,1.2,4.8,1.6,4.6,2.1,4.6,2.5,5.6,3.9,5,4.1,4.5,4.5,3.8,4.6,3.3,5,2.8,5.3,2.3,5.6,1.8,6,1.2,6.5,1.1,10,.8,2.3,1.2,1.8,1.2,1,3.1,1.2,2,.1,2.2-.4,1.9-.9,1.4-1.5,1-1.8.6-2.3.2-2.9-.5-6.2-.9-6-1.4-5.8-1.8-5.7-2.2-5.5-2.6-5.2-2.9-5.1-3.3-4.7-3.7-4.6-3.9-4.2-4.2-4-4.5-3.6-4.8-3.3-4.9-3-5.2-2.5-5.4-2.3-5.6-1.8-5.7-1.3-5.8-.9-6.1-.5Z"/>
    <path class="cls-13" d="M486.5,83.8l-2.6.2-2.1.6-1.7,1-1.4,1.4-.9,1.7-.6,2.2.1,2.2.6,1.8,1.1,1.6,1.5,1.3,2,1,10.9,2,6.8,2.7,3.1,1.8,5.3,4.5,4.3,5.5,3.1,6.3,1.9,7.1.6,5.6,1.4,3.5,2.2,2.4,2.7,1.1,2.9-.3,1.7-.6,1.6-1.1,1.2-1.3.8-1.4.8-2.4.2-2.9-3.2-13.1-1.4-4.2-1.8-4.2-2.3-4-2.7-3.7-3.1-3.5-3.4-3.2-3.7-2.8-3.9-2.5-4.1-2.1-4.3-1.7-4.5-1.3-4.5-.8-4.6-.4Z"/>
    <path class="cls-13" d="M489.4,114.4l-2.7.2-2.5.6-2.2,1.1-2.1,1.3-1.7,1.7-1.4,2-1.1,2.2-.6,2.4-.3,2.6.3,2.6.6,2.3,1.1,2.2,1.4,1.9,1.7,1.6,2,1.4,2.2,1,2.4.7,2.7.2,2.7-.2,2.4-.6,2.1-.9,2-1.4,1.5-1.6,1.3-2,1-2.1.5-2.5.3-2.8-.3-2.7-.5-2.4-1-2.2-1.2-1.9-1.6-1.6-1.9-1.3-2-1-2.4-.6-2.7-.2Z"/>
  </g>
  <g>
    <path class="cls-1" d="M860.8,125.9H253.7l-3.2.2-5.7,1.5-5.1,3-4,4.1-3,5.1-1,2.7-.8,6.2v387.4l.8,6.1,2.3,5.4,3.6,4.6,4.6,3.6,2.6,1.3,2.8,1,6.1.8h216.7v22.2h173.7v-22.2h216.7l3.1-.2,5.8-1.6,5-3,4.1-4,3-5.1.9-2.8.9-6.1V148.7l-.3-3.2-1.5-5.7-1.3-2.6-3.6-4.7-4.6-3.5-2.6-1.4-5.8-1.5-3.1-.2Z"/>
    <path class="cls-4" d="M851.5,528.4l-589.3-.2-.8-.7-.1-.6V157.9l.1-.6.8-.8h589.8l.8.8.1.6v369l-.4,1-1,.5Z"/>
    <path class="cls-10" d="M988.4,600.7h-82.1l3.6-2.8,3.4-3.1,3-3.4,2.7-3.8,2.2-4,1.8-4.3,1.3-4.5.8-4.7.3-4.9H187.3l.3,4.9.8,4.7,1.3,4.5,1.8,4.3,2.2,4,2.6,3.8,3.1,3.4,3.3,3.1,3.7,2.8h-82.2l-1.7.2-1.6.7-1.3,1-1.1,1.3-.6,1.6-.2,1.8.2,1.7.6,1.6,1.1,1.3,1.3,1,1.6.7,1.7.2h864.2l1.8-.2,1.6-.7,1.3-1,1-1.3.7-1.6.2-1.7-.2-1.8-.7-1.6-1-1.3-1.3-1-1.6-.7-1.8-.2Z"/>
  </g>
  <path class="cls-12" d="M301.3,209.1h51v299.7h-51V209.1Z"/>
  <path class="cls-9" d="M378.9,273.9h51v234.9h-51v-234.9Z"/>
  <path class="cls-12" d="M456.5,377.8h51v131h-51v-131Z"/>
  <path class="cls-8" d="M534.2,235.9h50.9v272.9h-50.9V235.9Z"/>
  <path class="cls-12" d="M611.8,332.4h50.9v176.4h-50.9v-176.4Z"/>
  <g>
    <path class="cls-7" d="M1044.6,540.6h-476.6l-2.8-.3-2.6-.7-2.3-1.1-2.2-1.6-1.8-1.8-1.6-2.2-1.1-2.4-.7-2.5-.3-2.9v-228.6l.3-2.8.7-2.6,1.1-2.4,1.6-2.1,1.8-1.9,2.2-1.5,2.3-1.2,2.6-.7,2.8-.2h476.6l2.8.2,2.6.7,2.4,1.2,2.2,1.5,1.8,1.9,1.5,2.1,1.2,2.4.7,2.6.2,2.8v228.7l-.2,2.8-.7,2.5-1.2,2.4-1.5,2.2-1.8,1.8-2.2,1.6-2.4,1.1-2.6.7-2.8.3Z"/>
    <path class="cls-6" d="M1028.6,516.9h-464.6l-2.1-.2-3.7-1.4-1.6-1.1-2.4-2.9-1.4-3.7-.2-2v-213.2l.7-4,2-3.3,2.9-2.5,1.8-.8,4-.7h464.6l2.1.2,3.7,1.3,1.5,1.2,2.5,2.9,1.4,3.6.2,2.1v213.2l-.7,3.9-2,3.4-2.9,2.4-1.8.9-4,.7Z"/>
    <path class="cls-5" d="M823.5,332.4h177.4v23.8h-177.4v-23.8Z"/>
    <path class="cls-5" d="M823.5,385.9h177.4v23.8h-177.4v-23.8Z"/>
    <path class="cls-5" d="M823.5,439.4h177.4v23.8h-177.4v-23.8Z"/>
    <path class="cls-2" d="M761.5,397.8l-.3,6.6-.8,6.4-1.3,6.2-1.7,6.1-2.2,5.9-2.7,5.6-3,5.3-3.5,5.1-3.8,4.8-4.1,4.5-4.5,4.2-4.9,3.8-5.1,3.5-5.3,3-5.6,2.6-5.9,2.3-6,1.7-6.2,1.3-6.4.8-6.7.2-6.6-.2-6.4-.8-6.2-1.3-6-1.7-5.9-2.3-5.6-2.6-5.4-3-5.1-3.5-4.8-3.8-4.5-4.2-4.2-4.5-3.8-4.8-3.4-5.1-3.1-5.3-2.6-5.6-2.2-5.9-1.8-6.1-1.3-6.2-.7-6.4-.3-6.6.3-6.6.7-6.4,1.3-6.2,1.8-6.1,2.2-5.9,2.6-5.6,3.1-5.3,3.4-5.1,3.8-4.8,4.2-4.5,4.5-4.2,4.8-3.8,5.1-3.5,5.4-3,5.6-2.6,5.9-2.3,6-1.7,6.2-1.3,6.4-.8,6.6-.2,6.7.2,6.4.8,6.2,1.3,6,1.7,5.9,2.3,5.6,2.6,5.3,3,5.1,3.5,4.9,3.8,4.5,4.2,4.1,4.5,3.8,4.8,3.5,5.1,3,5.3,2.7,5.6,2.2,5.9,1.7,6.1,1.3,6.2.8,6.4.3,6.6Z"/>
    <path class="cls-11" d="M758.5,365.3l-2.6-5.5-3-5.3-3.3-5-3.6-4.8-4-4.5-4.3-4.2-4.6-3.9-4.9-3.5-5.1-3.2-5.3-2.8-5.6-2.5-5.8-2-6-1.6-6.1-1.2-6.3-.7-6.5-.3v83.5l77-32.5Z"/>
    <path class="cls-8" d="M764.8,404l.2-6.2-.7-11.4-2.3-10.8-3.5-10.3-77,32.5,83.3,6.2Z"/>
  </g>
  <path class="cls-7" d="M900,256.8h-204.3l-3.8-.7-1.6-.7-2.8-2.4-1.8-3.1-.7-3.7V41.8l.7-3.7,1.8-3.2,2.8-2.3,3.4-1.3,206.3-.2,3.8.7,1.6.8,2.8,2.3,1.8,3.2.7,3.7v204.4l-.7,3.7-1.8,3.1-2.8,2.4-1.6.7-3.8.7Z"/>
  <path class="cls-11" d="M882.1,235.9h-189.4l-2-.3-1.9-.8-1.5-1.2-1.2-1.5-.8-1.8-.3-2.1V38.8l.3-2,.8-1.9,1.2-1.5,1.5-1.2,1.9-.8,2-.3h189.4l2,.3,1.9.8,1.5,1.2,1.2,1.5.8,1.9.3,2v189.4l-.3,2-.8,1.9-1.2,1.5-1.5,1.2-1.9.8-2,.3Z"/>
  <path class="cls-5" d="M807.4,67.1v31.8l-.3,1.4-.8,1.2-1.1.7-1.4.3h-10.9v18.1h58.4v39.9h10.8l1.4.3,1.1.8.8,1.1.3,1.4v31.8l-.3,1.4-.8,1.2-1.1.7-1.4.3h-31.3l-1.4-.3-1.1-.7-.8-1.2-.3-1.4v-31.6l.3-1.4.8-1.1,1.1-.8,1.4-.3h10.4v-29.9h-48.3v29.7h10.5l1.4.3,1.1.8.8,1.1.3,1.4v31.8l-.3,1.4-.8,1.1-1.1.8-1.4.3h-31.2l-1.4-.3-1.2-.8-.7-1.1-.3-1.4v-31.7l.3-1.4.7-1.1,1.2-.8,1.4-.3h10.5v-29.8h-48.2v29.8h10.3l1.4.3,1.1.7.8,1.2.2,1.4v32.1l-.2,1.4-.8,1.1-1.1.8-1.4.2h-32.1l-1.4-.2-1.1-.8-.8-1.1-.2-1.4v-32.1l.2-1.4.8-1.1,1.1-.8,1.4-.3h11.7v-40.1h58.3v-17.9h-11l-1.4-.3-1.1-.7-.8-1.2-.3-1.4v-31.9l.3-1.4.8-1.1,1.1-.8,1.4-.3h32.1l1.4.3,1.1.8.8,1.1.3,1.4Z"/>
  <path class="cls-2" d="M345.9,115l-.3,7.9-.8,7.8-1.2,7.5-1.8,7.3-2.3,7.3-2.7,7-3.1,6.7-3.5,6.5-4,6.3-4.3,5.9-4.6,5.7-5.1,5.4-5.4,5-5.6,4.7-6,4.3-6.3,4-6.5,3.5-6.7,3.1-7,2.7-7.2,2.3-7.4,1.7-7.5,1.3-7.7.8-8,.3-8-.3-7.7-.8-7.5-1.3-7.4-1.7-7.2-2.3-7-2.7-6.7-3.1-6.5-3.5-6.3-4-6-4.3-5.6-4.7-5.4-5-5.1-5.4-4.6-5.7-4.3-5.9-4-6.3-3.5-6.5-3.1-6.7-2.7-7-2.3-7.3-1.8-7.3-1.2-7.5-.8-7.8-.3-7.9.3-8,.8-7.7,1.2-7.6,1.8-7.3,2.3-7.3,2.7-6.9,3.1-6.8,3.5-6.5,4-6.3,4.3-5.9,4.6-5.7,5.1-5.4,5.4-5,5.6-4.7,6-4.3,6.3-3.9,6.5-3.6,6.7-3.1,7-2.7,7.2-2.2,7.4-1.8,7.5-1.3,7.7-.8,8-.2,8,.2,7.7.8,7.5,1.3,7.4,1.8,7.2,2.2,7,2.7,6.7,3.1,6.5,3.6,6.3,3.9,6,4.3,5.6,4.7,5.4,5,5.1,5.4,4.6,5.7,4.3,5.9,4,6.3,3.5,6.5,3.1,6.8,2.7,6.9,2.3,7.3,1.8,7.3,1.2,7.6.8,7.7.3,8Z"/>
  <path class="cls-5" d="M321.2,114.1l-.4-7.3-.8-7.1-1.4-6.8-1.9-6.7-2.5-6.4-2.9-6.2-3.3-6-3.7-5.6-4.2-5.4-4.6-4.9-4.9-4.7-5.3-4.3-5.6-3.9-5.9-3.5-6.2-3-6.5-2.6-6.6-2.1-6.9-1.6-7.1-1.1-7.7-.7h-4.1l-7.4.7-7.1,1.1-6.9,1.6-6.6,2.1-6.5,2.6-6.2,3-5.9,3.5-5.6,3.9-5.3,4.3-4.9,4.7-4.6,4.9-4.2,5.4-3.7,5.6-3.4,6-2.8,6.2-2.5,6.4-1.9,6.7-1.4,6.8-.8,7.1-.4,7.3.3,7.5.9,7.2,1.3,7,2,6.8,2.4,6.7,2.9,6.4,3.3,6,3.8,5.8,4.3,5.5,4.5,5.1,5,4.8,5.3,4.4,5.6,3.9,5.9,3.6,6.2,3,6.5,2.7,6.7,2.1,6.8,1.5,7.1,1.1,8.8.5,10.2-.5,7.1-1.1,6.8-1.5,6.7-2.1,6.5-2.7,6.2-3,5.9-3.6,5.6-3.9,5.3-4.4,5-4.8,4.5-5.1,4.3-5.5,3.8-5.8,3.3-6,2.9-6.4,2.4-6.7,2-6.8,1.3-7,.9-7.2.3-7.5ZM225,37v34.8l-25.7-6,24.2-29.7,1.5.9ZM225,84.2v23.9h-37.2l7-30.9,30.2,7ZM200,42.3l.7,1.2-11,16.5-9-5.8,19.3-11.9ZM172,63.3l1.3.3,7.5,4.6,1.5,1.3.9,1.5.3,1.6-.2,1.9-2.5,8.3-4.2,21.7-.8,1.6-1.2,1.6-1.3.7-20.1.2.8-6.6,1.2-6.2,1.7-5.9,2.1-5.7,2.6-5.4,3-5.3,3.5-5.2,3.9-5ZM153,121.1h22.4l8.1,36.8-11.8,8.1-3.9-5-3.5-5.1-3-5.3-2.5-5.4-2.1-5.6-1.7-5.9-1.2-6.1-.8-6.5ZM200,187.6l-20.2-12.4,9.3-6.3,11.6,17.6-.7,1.1ZM225,193.5l-5.1-4.5-4.6-4.6-4.2-4.9-3.8-5.2-3.7-5.6-3.5-6,24.9-6v36.8ZM225.2,144.3l-30.8,7.2-6.6-30.5h37.4v23.3ZM289.8,63.3l3.9,5,3.4,5.2,3.1,5.3,2.5,5.4,2.2,5.7,1.7,5.9,1.2,6.2.8,6.5-20.1-.1-1.3-.7-1.2-1.6-.8-1.7-4.2-21.7-2.5-8.2-.2-1.9.3-1.6.9-1.5,1.5-1.3,7.5-4.6,1.3-.3ZM261.8,42.3l19.3,11.9-9,5.8-11-16.5.7-1.2ZM236.8,37l1.5-.9,24.2,29.7-25.7,6v-34.8ZM236.8,84.2l30.2-7,7,30.9h-37.2v-23.9ZM236.6,121h37.4l-6.6,30.5-30.8-7.2v-23.3ZM236.8,193.5v-36.8l24.9,6-3.5,6-3.7,5.6-3.8,5.2-4.2,4.9-4.6,4.6-5.1,4.5ZM261.8,187.6l-.7-1.1,11.6-17.6,9.3,6.3-20.2,12.4ZM278.3,157.9l8.1-36.8h22.3l-.7,6.5-1.3,6.1-1.6,5.9-2.1,5.6-2.5,5.4-3,5.3-3.5,5.1-3.9,5-11.8-8.1Z"/>
  <path class="cls-7" d="M378.5,490.5H60.4l-3.4-.4-3.2-.8-2.9-1.4-2.6-1.9-2.3-2.2-1.9-2.7-1.3-2.9-.9-3.1-.3-3.5v-62.9l.3-3.4.9-3.2,1.3-2.9,1.9-2.7,2.3-2.2,2.6-1.9,2.9-1.4,3.2-.8,3.4-.3h318.1l3.4.3,3.2.8,2.9,1.4,2.6,1.9,2.3,2.2,1.9,2.7,1.3,2.9.9,3.2.3,3.4v62.9l-.3,3.5-.9,3.1-1.3,2.9-1.9,2.7-2.3,2.2-2.6,1.9-2.9,1.4-3.2.8-3.4.4Z"/>
  <path class="cls-11" d="M368.2,475H56.1l-2.7-.3-2.4-.6-2.2-1.1-2.1-1.4-1.7-1.8-1.5-2-1-2.3-.7-2.4-.2-2.6v-56.1l.2-2.7.7-2.4,1-2.3,1.5-2,1.7-1.7,2.1-1.5,2.2-1,2.4-.7,2.7-.3h312.1l2.6.3,2.4.6,2.3,1.1,2,1.5,1.8,1.7,1.4,2,1.1,2.3.6,2.4.3,2.7v56.1l-.3,2.6-.6,2.4-1.1,2.3-1.4,2-1.8,1.8-2,1.4-2.3,1.1-2.4.6-2.6.3Z"/>
  <path class="cls-5" d="M118.4,432.4l-.2,3-1.5,5.8-3,5.1-1.9,2.3-2.3,1.9-5.1,3-5.8,1.5-3,.2-3-.2-5.7-1.5-5.1-3-2.3-1.9-3.7-4.8-2.2-5.5-.6-2.9-.2-3,.8-5.9,2.2-5.5,3.7-4.7,2.3-2,5.1-3,5.7-1.5,3-.2,3,.2,5.8,1.5,5.1,3,2.3,2,1.9,2.3,3,5.1,1.5,5.7.2,3Z"/>
  <path class="cls-5" d="M183.7,432.4l-.2,3.2-1.6,5.7-1.3,2.6-3.6,4.7-4.6,3.5-2.6,1.4-5.7,1.5-3.2.2-6.1-.8-2.8-.9-5.1-3-4-4.1-1.7-2.5-2.3-5.4-.6-2.9-.2-3.2.8-6.1,1-2.8,3-5,4-4.1,5.1-3,5.8-1.6,3.1-.2,3.2.2,5.7,1.6,2.6,1.3,4.6,3.6,3.6,4.6,1.3,2.6,1.6,5.8.2,3.1Z"/>
  <path class="cls-5" d="M249,432.4l-.2,3-1.5,5.8-3,5.1-2,2.3-2.3,1.9-5.1,3-5.7,1.5-3,.2-3-.2-5.7-1.5-5.2-3-2.2-1.9-2-2.3-3-5.1-1.5-5.8-.2-3,.2-3,1.5-5.7,3-5.1,2-2.3,2.2-2,5.2-3,5.7-1.5,3-.2,3,.2,5.7,1.5,5.1,3,2.3,2,2,2.3,3,5.1,1.5,5.7.2,3Z"/>
  <path class="cls-13" d="M362.1,432.4l-.2,3-1.6,5.8-2.9,5.1-2,2.3-2.3,1.9-5.1,3-5.7,1.5-3,.2-3.1-.2-5.7-1.5-5.1-3-2.3-1.9-3.6-4.8-2.3-5.5-.6-2.9-.2-3,.8-5.9,2.3-5.5,3.6-4.7,2.3-2,5.1-3,5.7-1.5,3.1-.2,3,.2,5.7,1.5,5.1,3,2.3,2,2,2.3,2.9,5.1,1.6,5.7.2,3Z"/>
  <path class="cls-8" d="M192.8,589.5l-.3,6.4-.8,6.2-1.2,5.9-1.7,5.8-2.1,5.7-2.5,5.4-3,5.1-3.3,4.9-3.7,4.7-4,4.3-4.3,4-4.6,3.7-4.9,3.3-5.2,2.9-5.3,2.5-5.7,2.2-5.8,1.7-6,1.2-6.1.7-6.4.3-6.4-.3-6.1-.7-6-1.2-5.8-1.7-5.7-2.2-5.3-2.5-5.2-2.9-4.9-3.3-4.6-3.7-4.3-4-4-4.3-3.7-4.7-3.3-4.9-3-5.1-2.5-5.4-2.1-5.7-1.7-5.8-1.2-5.9-.8-6.2-.3-6.4.3-6.4.8-6.1,1.2-6,1.7-5.8,2.1-5.6,2.5-5.4,3-5.2,3.3-4.9,3.7-4.6,4-4.3,4.3-4,4.6-3.7,4.9-3.3,5.2-2.9,5.3-2.6,5.7-2.1,5.8-1.7,6-1.2,6.1-.8,6.4-.2,6.4.2,6.1.8,6,1.2,5.8,1.7,5.7,2.1,5.3,2.6,5.2,2.9,4.9,3.3,4.6,3.7,4.3,4,4,4.3,3.7,4.6,3.3,4.9,3,5.2,2.5,5.4,2.1,5.6,1.7,5.8,1.2,6,.8,6.1.3,6.4Z"/>
  <path class="cls-5" d="M140.2,642.7l-8.1-.7-7-2.1-4.3-2.1-4-2.5-3.8-3-6.3-5.9-6-6.1-5.5-6.4-5.1-6.7-4.5-7-4-7.3-2.5-5.7-2.3-5.9-1.8-6.3-1.4-6.5-.5-4.1.6-8.5,1.2-6.7,2.2-4.1,2.3-2.6,2.7-2.3,6.8-3.9,3.2.8,1.6,1.2,7.4,10.2,6.9,10.6.3,1.1-.2,1.7-1.2,3.1-.6.8-7.2,5.2-1.3,1.4-.7,1.3-.3,1.5.9,3.9,3.8,8.9,3.2,5.7,3.6,5.2,6.4,7.2,3.6,3.2,3.9,3.1,3,1.5h2.8l1.4-.5,8.8-6.1,2.2-.5,1,.3,2.1,1.6,14.7,20,.5,1.9-.6,3.5-3.1,3.2-2.7,2.1-2.8,1.7-3,1.1-3.1.6-3.2-.1Z"/>
  <path class="cls-11" d="M596.2,666.4l-.3,4.5-.9,4.3-1.4,4.1-1.9,3.8-2.4,3.5-2.8,3.2-3.2,2.8-3.5,2.4-3.8,1.9-4.1,1.4-4.2.9-4.6.3-4.5-.3-4.3-.9-4.1-1.4-3.8-1.9-3.5-2.4-3.2-2.8-2.8-3.2-2.4-3.5-1.9-3.8-1.4-4.1-.9-4.3-.3-4.5.3-4.6.9-4.2,1.4-4.1,1.9-3.8,2.4-3.5,2.8-3.2,3.2-2.8,3.5-2.4,3.8-1.9,4.1-1.4,4.3-.9,4.5-.3,4.6.3,4.2.9,4.1,1.4,3.8,1.9,3.5,2.4,3.2,2.8,2.8,3.2,2.4,3.5,1.9,3.8,1.4,4.1.9,4.2.3,4.6Z"/>
</svg>